<?xml version="1.0" encoding="UTF-8" standalone="no"?>
<svg
   version="1.1"
   x="0px"
   y="0px"
   viewBox="0 0 100 100"
   enable-background="new 0 0 100 100"
   xml:space="preserve"
   id="svg830"
   sodipodi:docname="bullseye.svg"
   width="100"
   height="100"
   inkscape:version="1.1 (c68e22c387, 2021-05-23)"
   inkscape:export-filename="C:\code\adamralph\bullseye\assets\bullseye.png"
   inkscape:export-xdpi="192"
   inkscape:export-ydpi="192"
   xmlns:inkscape="http://www.inkscape.org/namespaces/inkscape"
   xmlns:sodipodi="http://sodipodi.sourceforge.net/DTD/sodipodi-0.dtd"
   xmlns="http://www.w3.org/2000/svg"
   xmlns:svg="http://www.w3.org/2000/svg"><defs
     id="defs834" /><sodipodi:namedview
     id="namedview832"
     pagecolor="#505050"
     bordercolor="#eeeeee"
     borderopacity="1"
     inkscape:pageshadow="0"
     inkscape:pageopacity="0"
     inkscape:pagecheckerboard="0"
     showgrid="false"
     inkscape:zoom="6.496"
     inkscape:cx="0.46182266"
     inkscape:cy="62.57697"
     inkscape:window-width="1920"
     inkscape:window-height="1001"
     inkscape:window-x="-9"
     inkscape:window-y="-9"
     inkscape:window-maximized="1"
     inkscape:current-layer="svg830" /><g
     id="g824"><path
       fill="none"
       d="m 49.937,20.065 c -16.481,0 -30,13.39 -30,30 0,16.48 13.519,29.997 30,29.997 16.608,0 29.999,-13.517 29.999,-29.997 0,-16.61 -13.391,-30 -29.999,-30 z m 0,43.903 c -7.597,0 -13.904,-6.308 -13.904,-13.902 0,-7.726 6.308,-13.907 13.904,-13.907 7.724,0 13.903,6.181 13.903,13.907 0,7.594 -6.18,13.902 -13.903,13.902 z"
       id="path818" /><path
       fill="#B3B3B3"
       d="M 49.937,5 C 25.086,5 5,25.214 5,50.065 5,74.916 25.087,95 49.937,95 74.915,95 95,74.916 95,50.065 95,25.214 74.915,5 49.937,5 Z m 0,75.062 c -16.481,0 -30,-13.517 -30,-29.997 0,-16.61 13.519,-30 30,-30 16.608,0 29.999,13.389 29.999,30 0,16.481 -13.391,29.997 -29.999,29.997 z"
       id="path820" /><path
       fill="#B3B3B3"
       d="m 49.937,36.159 c -7.597,0 -13.904,6.181 -13.904,13.907 0,7.595 6.308,13.902 13.904,13.902 7.724,0 13.903,-6.308 13.903,-13.902 0,-7.726 -6.18,-13.907 -13.903,-13.907 z"
       id="path822" /></g></svg>
